<svg xmlns="http://www.w3.org/2000/svg" viewBox="0 0 640 475" width="640" height="475">
  <defs>
    <style>
      .title { font-family: system-ui, -apple-system, sans-serif; font-size: 16px; font-weight: 600; fill: #111827; }
      .lbl { font-family: system-ui, -apple-system, sans-serif; font-size: 11px; fill: #1f2937; dominant-baseline: central; text-anchor: middle; }
      .sublbl { font-family: system-ui, -apple-system, sans-serif; font-size: 8px; fill: #6b7280; text-anchor: middle; }
      .gate-and { fill: #ffffff; stroke: #374151; stroke-width: 1.5; }
      .gate-in { fill: #e1f5fe; stroke: #0288d1; stroke-width: 1.5; rx: 6px; }
      .gate-const { fill: #eeeeee; stroke: #757575; stroke-width: 1.5; }
      .gate-out { fill: #f3e8ff; stroke: #7e22ce; stroke-width: 1.5; rx: 6px; }
      .wire { fill: none; stroke: #374151; stroke-width: 1.75; stroke-linecap: round; }
      .wire-inv { fill: none; stroke: #d32f2f; stroke-width: 1.75; stroke-linecap: round; }
      .bubble { fill: #ffffff; stroke: #d32f2f; stroke-width: 1.5; }
    </style>
  </defs>
  <rect width="100%" height="100%" fill="#fafafa" rx="8"/>
  <text x="40" y="50" class="title">Mutual Causality - Before Unrolling</text>
  <path d="M 120 190 C 147 190, 153 217.8, 180 217.8" class="wire"/>
  <path d="M 120 260 C 147 260, 153 232.2, 180 232.2" class="wire"/>
  <path d="M 120 120 C 210 120, 222 252.8, 312 252.8" class="wire-inv"/>
  <circle cx="316" cy="252.8" r="3.5" class="bubble"/>
  <path d="M 230 225 C 270.5 225, 271.5 267.2, 312 267.2" class="wire-inv"/>
  <circle cx="316" cy="267.2" r="3.5" class="bubble"/>
  <path d="M 120 330 C 147 330, 153 287.8, 180 287.8" class="wire"/>
  <path d="M 120 400 C 147 400, 153 302.2, 180 302.2" class="wire"/>
  <path d="M 370 260 C 410.5 260, 411.5 225, 452 225" class="wire-inv"/>
  <circle cx="456" cy="225" r="3.5" class="bubble"/>
  <path d="M 230 295 C 333.5 295, 356.5 295, 460 295" class="wire"/>
  <rect x="40" y="102" width="80" height="36" class="gate-in"/>
  <text x="80" y="120" class="lbl">EmitA</text>
  <rect x="40" y="172" width="80" height="36" class="gate-in"/>
  <text x="80" y="190" class="lbl">Cond1</text>
  <rect x="40" y="242" width="80" height="36" class="gate-in"/>
  <text x="80" y="260" class="lbl">SigB</text>
  <ellipse cx="205" cy="225" rx="25" ry="18" class="gate-and"/>
  <text x="205" y="223" class="lbl" font-weight="bold">&amp;</text>
  <text x="205" y="235" class="sublbl">#6</text>
  <ellipse cx="345" cy="260" rx="25" ry="18" class="gate-and"/>
  <text x="345" y="258" class="lbl" font-weight="bold">&amp;</text>
  <text x="345" y="270" class="sublbl">#7</text>
  <rect x="40" y="312" width="80" height="36" class="gate-in"/>
  <text x="80" y="330" class="lbl">Cond2</text>
  <rect x="40" y="382" width="80" height="36" class="gate-in"/>
  <text x="80" y="400" class="lbl">SigA</text>
  <ellipse cx="205" cy="295" rx="25" ry="18" class="gate-and"/>
  <text x="205" y="293" class="lbl" font-weight="bold">&amp;</text>
  <text x="205" y="305" class="sublbl">#8</text>
  <rect x="460" y="209" width="80" height="32" class="gate-out"/>
  <text x="500" y="225" class="lbl">out[0]</text>
  <rect x="460" y="279" width="80" height="32" class="gate-out"/>
  <text x="500" y="295" class="lbl">out[1]</text>
</svg>